<svg width="20" height="20" viewBox="0 0 20 20" fill="none" xmlns="http://www.w3.org/2000/svg">
<path d="M9.65745 1.30738C9.03708 1.37219 8.56856 1.50367 8.06485 1.74812C7.61856 1.96664 7.30745 2.18515 6.96671 2.52404C6.52411 2.96108 6.14819 3.53145 5.98708 4.00552L5.93522 4.15738L5.92967 6.19812C5.92411 8.4833 5.91856 8.3833 6.05745 8.66293C6.24263 9.03886 6.65745 9.29626 7.08337 9.29626C7.5093 9.29626 7.92411 9.04071 8.1093 8.66664C8.24448 8.39071 8.24078 8.46664 8.24078 6.43515V4.62034L8.313 4.50923C8.68522 3.94441 9.27597 3.62775 9.963 3.62404C10.1463 3.62219 10.2315 3.63145 10.3704 3.66478C10.926 3.80182 11.376 4.08701 11.5889 4.43515L11.6445 4.52775L11.6574 6.38886C11.6723 8.46108 11.6686 8.39997 11.7982 8.66664C11.9834 9.04071 12.3982 9.29626 12.8241 9.29626C13.25 9.29626 13.6649 9.04071 13.85 8.66478C13.9926 8.37775 13.9871 8.48145 13.9723 6.23145C13.9593 4.00182 13.9667 4.12404 13.8278 3.76478C13.6556 3.31849 13.4278 2.97034 13.0741 2.60367C12.7297 2.24997 12.4074 2.01849 11.9167 1.77775C11.4778 1.56108 11.0186 1.41478 10.5463 1.34256C10.3649 1.31293 9.80374 1.29256 9.65745 1.30738Z" fill="#A7AAAD"/>
<path d="M16.6648 9.83703C16.2389 10.5611 15.5463 11.2111 14.8 11.5833C14.1056 11.9296 13.4852 12.0759 12.713 12.0759C12.3093 12.0759 12.0408 12.0481 11.6852 11.9685C11.1241 11.8426 10.6278 11.6259 10.1056 11.2815L10.0371 11.2352L9.80929 11.3889C9.54262 11.5685 9.07781 11.8 8.77411 11.9055C7.67411 12.2852 6.4704 12.2426 5.4167 11.787C5.21855 11.7018 4.9167 11.5407 4.75003 11.4296C4.59077 11.3241 4.51485 11.2704 4.29077 11.0963C4.23892 11.0555 3.75929 10.5759 3.71855 10.5241C3.54448 10.2981 3.49077 10.2241 3.38522 10.0648C3.31855 9.96296 3.24448 9.84444 3.22225 9.79999C3.19262 9.74814 3.17411 9.72962 3.16485 9.74444C3.15744 9.7574 3.13337 9.92592 3.11299 10.1204C2.86485 12.3555 3.24633 14.1204 4.32596 15.7463C4.55188 16.0833 4.68892 16.2611 4.98892 16.5907C5.96855 17.6704 7.20744 18.4389 8.4667 18.7481C10.6482 19.2852 12.8408 18.6055 14.5926 16.8518C14.9667 16.4778 15.2334 16.1574 15.4908 15.7685C16.3278 14.5093 16.7371 13.2333 16.8352 11.5741C16.8667 11.0463 16.8278 9.78333 16.7797 9.68888C16.7704 9.67407 16.7297 9.72962 16.6648 9.83703Z" fill="#A7AAAD"/>
</svg>
